# xmcd
#
# Track frame offsets:
#	150
#	6058
#	27985
#	45060
#	71198
#	86728
#	104013
#	119863
#	139280
#	147130
#	157260
#	171750
#	183380
#	211668
#	232383
#	251080
#	265288
#
# Disc length: 3710 seconds
#
# Revision: 1
# Processed by: cddbd v1.5.1PL0 Copyright (c) Steve Scherf et al.
# Submitted via: CDex 1.50Beta5
#
DISCID=020e7c11
DTITLE=佐橋俊彦 - 激走戦隊カーレンジャーMusic Collection III
DYEAR=1996
DGENRE=Soundtrack
TTITLE0=高山成孝/激走戦隊カーレンジャー〜フルアクセルヴァージョン〜(TvサイズIi)
TTITLE1=佐橋俊彦/ドライブしようぜ！(Catch The Wind)
TTITLE2=佐橋俊彦/Crazy Moonlight
TTITLE3=佐橋俊彦/Another Version Collection
TTITLE4=佐橋俊彦/だから戦うカーレンジャー（インストヴァージョン）
TTITLE5=佐橋俊彦/Heartful Moment
TTITLE6=佐橋俊彦/危うし！一般市民
TTITLE7=佐橋俊彦/ハイスパート・アクション
TTITLE8=佐橋俊彦/激走合体!! Rvロボ（インストヴァージョン）
TTITLE9=佐橋俊彦/Bridge Collection
TTITLE10=佐橋俊彦/激走戦隊カーレンジャー〜フルアクセルヴァージョン〜（インストヴァージョン）
TTITLE11=佐橋俊彦/ホップ・ステップ・クラッシュ！
TTITLE12=佐橋俊彦/涙の歌姫（夢見るゾンネット）
TTITLE13=佐橋俊彦/燃え上がれボーゾック魂
TTITLE14=佐橋俊彦/発進！怒濤のニューマシン
TTITLE15=佐橋俊彦/絶対勝利だ！Vrv（インストヴァージョン）
TTITLE16=佐橋俊彦/未来への賛歌〜激走体操カーレンジャー〜（2コーラスCutヴァージョン）
EXTD=
EXTT0=
EXTT1=
EXTT2=
EXTT3=
EXTT4=
EXTT5=
EXTT6=
EXTT7=
EXTT8=
EXTT9=
EXTT10=
EXTT11=
EXTT12=
EXTT13=
EXTT14=
EXTT15=
EXTT16=
PLAYORDER=
